# xmcd
#
# Track frame offsets:
#	150
#	15641
#	32370
#	47072
#	63404
#	77810
#	90942
#	107784
#	127180
#	140979
#
# Disc length: 2057 seconds
#
# Revision: 0
# Processed by: cddbd v1.5.2PL0 Copyright (c) Steve Scherf et al.
# Submitted via: EasyCDDAExtractor 15.3.0.1
#
DISCID=8208070a
DTITLE=Mariana - La Malquerida
DYEAR=2012
DGENRE=Latin
TTITLE0=Me Equivoque
TTITLE1=Una De Dos
TTITLE2=Que No Me Faltes Tu
TTITLE3=Mermelada
TTITLE4=La Malquerida
TTITLE5=La Mañana
TTITLE6=Nadie Me Lo Conto
TTITLE7=Loca
TTITLE8=Atrevete A Mirarme De Frente
TTITLE9=No Vuelvo Contigo
EXTD=
EXTT0=
EXTT1=
EXTT2=
EXTT3=
EXTT4=
EXTT5=
EXTT6=
EXTT7=
EXTT8=
EXTT9=
PLAYORDER=
